<svg xmlns="http://www.w3.org/2000/svg" viewBox="0 0 21.76 19.98">
  <defs><style>.fill{fill:none;}.line{fill:#44444f;}</style></defs>
  <g id="fill">
    <g id="fill_wall">
      <path class="fill" d="M11,1.6,3.5,5.7l1.7,12a1.1,1.1,0,0,0,1.2.8h9.3a1.1,1.1,0,0,0,1.2-.8l1.7-12ZM11,14a3.8,3.8,0,1,1,3.8-3.8A3.8,3.8,0,0,1,11,14Z" transform="translate(-0.12 -0.02)"/>
    </g>
    <path class="fill" d="M11,1.6,3.5,5.7l1.7,12a1.1,1.1,0,0,0,1.2.8h9.2a1.1,1.1,0,0,0,1.2-.8l1.7-12ZM11,14a3.8,3.8,0,1,1,3.8-3.8A3.8,3.8,0,0,1,11,14Z" transform="translate(-0.12 -0.02)"/>
    <path class="fill" d="M21.5,5.6,11.4.1a.85.85,0,0,0-.7,0L.5,5.6a.78.78,0,0,0-.3,1A1,1,0,0,0,.9,7a.76.76,0,0,0,.4-.1l.8-.4L3.7,18a2.55,2.55,0,0,0,2.7,2h9.3a2.69,2.69,0,0,0,2.7-2.1L20,6.4l.8.4a.69.69,0,1,0,.7-1.2ZM16.8,17.7a1.1,1.1,0,0,1-1.2.8H6.4a1.1,1.1,0,0,1-1.2-.8L3.5,5.7,11,1.6l7.5,4.1Z" transform="translate(-0.12 -0.02)"/>
  </g>
  <g id="line">
    <g id="line_window">
      <path class="line" d="M11,6.4a3.8,3.8,0,1,0,3.8,3.8A3.8,3.8,0,0,0,11,6.4Zm0,6.1a2.3,2.3,0,1,1,2.3-2.3A2.33,2.33,0,0,1,11,12.5Z" transform="translate(-0.12 -0.02)"/>
    </g>
    <path class="line" d="M21.5,5.6,11.4.1a.85.85,0,0,0-.7,0L.5,5.6a.78.78,0,0,0-.3,1A1,1,0,0,0,.9,7a.76.76,0,0,0,.4-.1l.8-.4L3.7,18a2.55,2.55,0,0,0,2.7,2h9.3a2.69,2.69,0,0,0,2.7-2.1L20,6.4l.8.4a.69.69,0,1,0,.7-1.2ZM16.8,17.7a1.1,1.1,0,0,1-1.2.8H6.4a1.1,1.1,0,0,1-1.2-.8L3.5,5.7,11,1.6l7.5,4.1Z" transform="translate(-0.12 -0.02)"/>
  </g>
</svg>