<svg xmlns="http://www.w3.org/2000/svg" viewBox="0 0 16.7 20.34">
  <defs><style>.cls-1{fill:none;}.cls-2{fill:#44444f;}</style></defs>
  <g id="fill">
    <path class="cls-1" d="M15.7,19.25a.66.66,0,0,1-.55.25H2.85a.66.66,0,0,1-.55-.25.73.73,0,0,1-.12-.65A6.79,6.79,0,0,1,9,13.75a6.79,6.79,0,0,1,6.82,4.85A.73.73,0,0,1,15.7,19.25Z" transform="translate(-0.65 -0.66)"/>
    <path class="cls-1" d="M11.71,8.57c-.45.52-1.27.75-2.71.75s-2.25-.23-2.71-.75-.66-1.65-.45-3.2C6,4.17,6.63,2.16,9,2.16s3,2,3.16,3.21C12.37,6.92,12.22,8,11.71,8.57Z" transform="translate(-0.65 -0.66)"/>
  </g>
  <g id="line">
    <path class="cls-2" d="M13.65,5.17C13.27,2.34,11.53.66,9,.66S4.73,2.34,4.35,5.17c-.27,2,0,3.46.81,4.39A4.86,4.86,0,0,0,9,10.82a4.86,4.86,0,0,0,3.84-1.26C13.65,8.63,13.92,7.19,13.65,5.17Zm-1.94,3.4c-.45.52-1.27.75-2.71.75s-2.25-.23-2.71-.75-.66-1.65-.45-3.2C6,4.17,6.63,2.16,9,2.16s3,2,3.16,3.21C12.37,6.92,12.22,8,11.71,8.57Zm5.57,9.67a8.3,8.3,0,0,0-8.28-6,8.3,8.3,0,0,0-8.28,6,2.23,2.23,0,0,0,.4,1.94A2.17,2.17,0,0,0,2.85,21h12.3a2.19,2.19,0,0,0,1.74-.82A2.26,2.26,0,0,0,17.28,18.24Zm-1.58,1a.66.66,0,0,1-.55.25H2.85a.66.66,0,0,1-.55-.25.73.73,0,0,1-.12-.65A6.79,6.79,0,0,1,9,13.75a6.79,6.79,0,0,1,6.82,4.85A.73.73,0,0,1,15.7,19.25Z" transform="translate(-0.65 -0.66)"/>
  </g>
</svg>