<svg xmlns="http://www.w3.org/2000/svg" viewBox="0 0 20.76 20.76">
  <defs><style>.cls-1{fill:none;}</style></defs>
  <g id="fill">
    <g id="fill-2" data-name="fill">
      <circle class="cls-1" cx="10.38" cy="10.38" r="2.29"/>
      <path class="cls-1" d="M18.69,7.76h-.15a.78.78,0,0,1-.65-.48A.74.74,0,0,1,18,6.5l.1-.12A2.25,2.25,0,0,0,18,3.32l-.51-.51a2.32,2.32,0,0,0-3.08-.16l-.12.1a.75.75,0,0,1-.79.11A.73.73,0,0,1,13,2.23V2.07A2.26,2.26,0,0,0,10.74,0H10A2.26,2.26,0,0,0,7.76,2.07v.15a.75.75,0,0,1-.47.65.78.78,0,0,1-.79-.12l-.12-.1a2.32,2.32,0,0,0-3.06.14l-.51.51a2.25,2.25,0,0,0-.16,3.08l.1.11a.8.8,0,0,1,.12.8.77.77,0,0,1-.65.47H2.07A2.26,2.26,0,0,0,0,10v.72A2.26,2.26,0,0,0,2.07,13h.15a.76.76,0,0,1,.52,1.26l-.09.12a2.25,2.25,0,0,0,.14,3.06l.51.51a2.32,2.32,0,0,0,3.08.16L6.49,18a.78.78,0,0,1,1.27.52v.15A2.26,2.26,0,0,0,10,20.76h.72A2.26,2.26,0,0,0,13,18.7v-.15A.77.77,0,0,1,14.27,18l.11.09A2.32,2.32,0,0,0,17.44,18l.51-.51a2.25,2.25,0,0,0,.16-3.09l-.1-.12a.75.75,0,0,1-.11-.79.74.74,0,0,1,.64-.47h.15a2.26,2.26,0,0,0,2.07-2.26V10A2.26,2.26,0,0,0,18.69,7.76Zm-4.52,2.62a3.79,3.79,0,1,1-3.79-3.79,3.79,3.79,0,0,1,3.79,3.79Z" transform="translate(0 0)"/>
    </g>
    <path class="cls-1" d="M12.67,10.38a2.29,2.29,0,1,1-2.29-2.29A2.31,2.31,0,0,1,12.67,10.38Z" transform="translate(0 0)"/>
    <path class="cls-1" d="M18.69,7.76h-.15a.78.78,0,0,1-.65-.48A.74.74,0,0,1,18,6.5l.1-.12A2.25,2.25,0,0,0,18,3.32l-.51-.51a2.31,2.31,0,0,0-3.08-.16l-.12.1a.74.74,0,0,1-.79.11A.73.73,0,0,1,13,2.23V2.07A2.26,2.26,0,0,0,10.74,0H10A2.26,2.26,0,0,0,7.76,2.07v.15a.75.75,0,0,1-.47.65.78.78,0,0,1-.79-.12l-.12-.1a2.32,2.32,0,0,0-3.06.14l-.51.51a2.25,2.25,0,0,0-.16,3.08l.1.11a.8.8,0,0,1,.12.8.75.75,0,0,1-.65.47H2.07A2.26,2.26,0,0,0,0,10v.72A2.26,2.26,0,0,0,2.07,13h.15a.76.76,0,0,1,.52,1.26l-.09.12a2.25,2.25,0,0,0,.14,3.06L3.3,18a2.31,2.31,0,0,0,3.08.16L6.49,18a.79.79,0,0,1,1.1.11.88.88,0,0,1,.17.41v.15A2.26,2.26,0,0,0,10,20.76h.72A2.26,2.26,0,0,0,13,18.7v-.15a.78.78,0,0,1,.48-.65.76.76,0,0,1,.79.13l.11.09A2.32,2.32,0,0,0,17.44,18l.51-.51a2.24,2.24,0,0,0,.16-3.09l-.1-.12a.74.74,0,0,1-.11-.79.73.73,0,0,1,.64-.47h.15a2.26,2.26,0,0,0,2.07-2.26V10A2.26,2.26,0,0,0,18.69,7.76Zm-4.52,2.62a3.79,3.79,0,1,1-3.79-3.79A3.79,3.79,0,0,1,14.17,10.38Z" transform="translate(0 0)"/>
  </g>
  <g id="line">
    <path d="M10.38,6.59a3.79,3.79,0,1,0,3.79,3.79A3.79,3.79,0,0,0,10.38,6.59Zm0,6.08a2.29,2.29,0,1,1,2.29-2.29A2.3,2.3,0,0,1,10.38,12.67Z" transform="translate(0 0)"/>
    <path d="M18.69,7.76h-.15a.78.78,0,0,1-.65-.48A.74.74,0,0,1,18,6.5l.1-.12A2.25,2.25,0,0,0,18,3.32l-.51-.51a2.31,2.31,0,0,0-3.08-.16l-.12.1a.74.74,0,0,1-.79.11A.73.73,0,0,1,13,2.23V2.07A2.26,2.26,0,0,0,10.74,0H10A2.26,2.26,0,0,0,7.76,2.07v.15a.75.75,0,0,1-.47.65.78.78,0,0,1-.79-.12l-.12-.1a2.32,2.32,0,0,0-3.06.14l-.51.51a2.25,2.25,0,0,0-.16,3.08l.1.11a.8.8,0,0,1,.12.8.75.75,0,0,1-.65.47H2.07A2.26,2.26,0,0,0,0,10v.72A2.26,2.26,0,0,0,2.07,13h.15a.76.76,0,0,1,.52,1.26l-.09.12a2.25,2.25,0,0,0,.14,3.06L3.3,18a2.31,2.31,0,0,0,3.08.16L6.49,18a.79.79,0,0,1,1.1.11.88.88,0,0,1,.17.41v.15A2.26,2.26,0,0,0,10,20.76h.72A2.26,2.26,0,0,0,13,18.7v-.15a.78.78,0,0,1,.48-.65.76.76,0,0,1,.79.13l.11.09A2.32,2.32,0,0,0,17.44,18l.51-.51a2.24,2.24,0,0,0,.16-3.09l-.1-.12a.74.74,0,0,1-.11-.79.73.73,0,0,1,.64-.47h.15a2.26,2.26,0,0,0,2.07-2.26V10A2.26,2.26,0,0,0,18.69,7.76Zm-.13,3.77h-.18a2.29,2.29,0,0,0-2,2.49,2.24,2.24,0,0,0,.51,1.23l.1.12a.76.76,0,0,1,0,1l-.51.51a.74.74,0,0,1-.54.23.77.77,0,0,1-.5-.18l-.11-.1a2.28,2.28,0,0,0-3.75,1.55v.15a.77.77,0,0,1-.77.7H10a.77.77,0,0,1-.77-.7v-.15a2.24,2.24,0,0,0-1.4-1.9,2.12,2.12,0,0,0-.9-.1,2.35,2.35,0,0,0-1.46.52L5.4,17a.76.76,0,0,1-1,0l-.55-.62a.76.76,0,0,1,0-1l.1-.11a2.28,2.28,0,0,0-1.57-3.74H2.23a.78.78,0,0,1-.71-.77V10a.77.77,0,0,1,.7-.77h.16A2.27,2.27,0,0,0,3.9,5.52l-.1-.14a.78.78,0,0,1,0-1l.58-.53a.76.76,0,0,1,1,0L5.5,4A2.28,2.28,0,0,0,9.24,2.38V2.2A.77.77,0,0,1,10,1.5h.72a.76.76,0,0,1,.77.7v.16a2.25,2.25,0,0,0,1.39,1.89,2.3,2.3,0,0,0,2.32-.35l.12-.1a.77.77,0,0,1,.5-.18.74.74,0,0,1,.54.23l.51.51a.76.76,0,0,1,0,1l-.1.11a2.29,2.29,0,0,0,1.6,3.76h.15a.78.78,0,0,1,.71.77l0,.76A.77.77,0,0,1,18.56,11.53Z" transform="translate(0 0)"/>
  </g>
</svg>